<svg width="165" height="135" viewBox="0 0 165 135" fill="none" xmlns="http://www.w3.org/2000/svg">
<rect width="165" height="135" fill="#4F46E5"/>
<path d="M43.8333 31.6667H51.6667V69.6667H71.25H94.75H114.333V31.6667H122.167L83 6.33333L43.8333 31.6667ZM75.1667 66.5V41.1667H90.8333V66.5H75.1667ZM110.417 28.5V66.5H94.75V38H71.25V66.5H55.5833V28.5H54.9998L83 10.3882L111 28.5H110.417Z" fill="black"/>
<path d="M30.1683 118.192C29.9123 118.192 29.7843 118.043 29.7843 117.744C29.7843 117.531 29.8483 117.275 29.9763 116.976C30.3176 116.251 30.7016 115.227 31.1283 113.904C31.5976 112.581 32.1736 111.451 32.8563 110.512C33.0696 110.043 33.3896 109.467 33.8163 108.784C34.2856 108.059 34.7336 107.205 35.1603 106.224V105.904C35.1603 105.776 35.1603 105.669 35.1603 105.584C35.2029 105.456 35.2456 105.328 35.2883 105.2C35.4589 104.859 35.6083 104.624 35.7363 104.496C35.9069 104.368 36.0776 104.133 36.2483 103.792C36.2483 103.707 36.2483 103.621 36.2483 103.536C36.2909 103.451 36.3336 103.365 36.3763 103.28C36.2909 103.365 36.2696 103.301 36.3123 103.088C36.2269 103.088 36.3123 102.875 36.5683 102.448C36.7389 102.064 36.8669 101.851 36.9523 101.808H37.0163C37.1869 101.552 37.3363 101.339 37.4643 101.168C37.5923 100.955 37.6349 100.827 37.5923 100.784V100.656C37.5923 100.357 37.6776 100.08 37.8483 99.824C38.0616 99.568 38.2536 99.2907 38.4243 98.992C38.5523 98.8213 38.6589 98.736 38.7443 98.736C38.8296 98.736 38.8723 98.7573 38.8723 98.8C38.9149 98.8 38.9576 98.8 39.0003 98.8C39.1283 98.8 39.1923 98.6933 39.1923 98.48C39.1923 98.3947 39.1709 98.288 39.1283 98.16C39.1283 98.032 39.1069 97.8827 39.0642 97.712C39.1069 97.4987 39.2776 97.328 39.5763 97.2L39.7683 97.136C39.9816 96.24 40.2376 95.6427 40.5363 95.344C40.6216 95.2587 40.7069 95.1733 40.7923 95.088C40.8776 95.0027 40.9629 94.9173 41.0483 94.832C41.5603 94.2773 41.9443 93.68 42.2003 93.04C42.2856 92.8693 42.3923 92.7413 42.5203 92.656C42.6909 92.528 42.8403 92.3787 42.9683 92.208C43.0536 92.08 43.0749 91.952 43.0323 91.824C43.0323 91.6533 43.0536 91.504 43.0963 91.376C43.3096 91.0347 43.4589 90.8427 43.5443 90.8C43.6296 90.7573 43.7149 90.7147 43.8003 90.672C43.9283 90.5867 44.1416 90.3947 44.4403 90.096C44.5683 89.8827 44.6963 89.6693 44.8243 89.456C44.9949 89.2427 45.1656 89.0293 45.3363 88.816C45.5923 88.5173 45.8696 88.304 46.1683 88.176C46.4669 88.048 46.7656 87.856 47.0643 87.6C47.1496 87.5147 47.1923 87.3867 47.1923 87.216C47.1923 87.0027 47.2349 86.8533 47.3203 86.768C48.8136 85.5733 50.4136 84.5707 52.1203 83.76C53.8696 82.9493 55.2136 82.544 56.1523 82.544C56.4936 82.544 56.8136 82.5653 57.1123 82.608C57.4536 82.6507 57.7736 82.7147 58.0723 82.8H58.2003C58.4136 82.8 58.6269 82.8427 58.8403 82.928C59.0536 83.0133 59.2456 83.0987 59.4163 83.184C59.5869 83.184 59.8003 83.2267 60.0563 83.312C60.2696 83.3973 60.3976 83.5253 60.4403 83.696C60.4829 83.8667 60.4403 83.9947 60.3123 84.08C60.2696 84.1227 60.2056 84.1227 60.1203 84.08C60.0349 84.0373 59.9496 84.016 59.8643 84.016C59.7789 84.016 59.6936 83.9733 59.6083 83.888C59.5229 83.8027 59.4376 83.7387 59.3523 83.696C59.1816 83.696 58.9896 83.7173 58.7763 83.76C58.6056 83.8027 58.4136 83.824 58.2003 83.824H58.0083C57.7096 83.824 57.4963 83.7813 57.3683 83.696C57.2829 83.568 57.0696 83.5467 56.7283 83.632C56.6856 83.632 56.5576 83.6533 56.3443 83.696C56.1309 83.7387 55.9816 83.76 55.8963 83.76C54.3603 84.144 53.0163 84.784 51.8643 85.68C50.7123 86.5333 49.6883 87.4933 48.7923 88.56C47.9389 89.6267 47.1069 90.6507 46.2963 91.632C45.9123 92.4 45.5283 93.0187 45.1443 93.488C45.1016 93.5307 45.0589 93.5093 45.0163 93.424C44.9736 93.3387 44.9309 93.3387 44.8883 93.424C44.7603 93.552 44.6536 93.7653 44.5683 94.064C44.5256 94.32 44.4403 94.5333 44.3123 94.704C44.2696 94.7467 44.2269 94.7253 44.1843 94.64C44.1416 94.5547 44.0776 94.5547 43.9923 94.64C43.9496 94.6827 43.8856 94.8533 43.8003 95.152C43.7576 95.408 43.6936 95.5787 43.6083 95.664C43.0963 96.3467 42.5416 97.008 41.9443 97.648C41.3469 98.288 40.7496 99.0347 40.1523 99.888C39.2989 101.211 38.4883 102.512 37.7203 103.792C36.9523 105.072 36.1416 106.48 35.2883 108.016C34.9896 108.528 34.7549 108.997 34.5843 109.424C34.4563 109.808 34.3069 110.171 34.1363 110.512C34.0509 110.64 34.0083 110.811 34.0083 111.024C34.0083 111.323 34.1789 111.472 34.5203 111.472C34.7763 111.472 35.0323 111.408 35.2883 111.28L35.9283 111.024C36.9523 110.085 38.0189 109.296 39.1283 108.656C39.1709 108.656 39.1923 108.656 39.1923 108.656C39.2349 108.613 39.2776 108.592 39.3203 108.592C39.4483 108.592 39.5336 108.677 39.5763 108.848C39.6189 108.976 39.5763 109.083 39.4483 109.168C38.2109 109.851 37.0589 110.725 35.9923 111.792C35.9496 111.877 35.9069 111.963 35.8643 112.048C35.8216 112.133 35.7576 112.219 35.6723 112.304C35.5869 112.389 35.4589 112.539 35.2883 112.752C35.1603 112.965 35.0963 113.093 35.0963 113.136C35.0536 113.264 34.9896 113.307 34.9043 113.264C34.8616 113.221 34.7336 113.285 34.5203 113.456C34.4776 113.499 34.4349 113.584 34.3923 113.712C34.3923 113.84 34.3709 113.947 34.3283 114.032C34.2856 114.16 34.2003 114.267 34.0723 114.352C33.9869 114.395 33.9443 114.437 33.9443 114.48C33.9016 114.651 33.8163 114.757 33.6883 114.8C33.6029 114.8 33.5176 114.843 33.4323 114.928C33.3896 114.971 33.3896 115.035 33.4323 115.12C33.4749 115.205 33.4536 115.291 33.3683 115.376C33.3256 115.504 33.2829 115.568 33.2403 115.568C33.1976 115.525 33.1336 115.547 33.0483 115.632C32.8776 115.803 32.7496 115.888 32.6643 115.888C32.4083 115.973 32.3016 116.037 32.3443 116.08C32.4296 116.123 32.4936 116.165 32.5363 116.208C32.6216 116.208 32.5576 116.272 32.3443 116.4C32.2589 116.443 32.1736 116.571 32.0883 116.784C32.0029 116.955 31.9176 117.083 31.8323 117.168C31.7043 117.253 31.5763 117.317 31.4483 117.36C31.3629 117.403 31.2563 117.488 31.1283 117.616C30.7443 118 30.4243 118.192 30.1683 118.192ZM50.9588 98.032C50.8308 98.032 50.7028 97.9893 50.5748 97.904C50.4894 97.8187 50.3614 97.712 50.1908 97.584C50.1054 97.5413 49.9988 97.4987 49.8708 97.456C49.7854 97.3707 49.7428 97.2427 49.7428 97.072C49.7001 97.0293 49.6148 97.008 49.4868 97.008C49.2734 97.008 49.1667 96.8587 49.1667 96.56C49.1667 96.2187 49.3374 95.984 49.6788 95.856L49.9988 95.6V95.664L50.2548 95.344H50.3828C50.6388 95.344 50.8094 95.216 50.8948 94.96C51.0228 94.704 51.2788 94.5333 51.6628 94.448C51.9188 94.3627 52.1321 94.384 52.3028 94.512C52.4734 94.64 52.6868 94.704 52.9428 94.704C53.1988 94.704 53.4761 94.6187 53.7748 94.448L54.7348 94.256C54.8628 94.256 54.9268 94.2987 54.9268 94.384C54.9268 94.4693 54.7988 94.576 54.5428 94.704C54.3294 94.832 54.1801 94.9387 54.0948 95.024L54.0308 95.088L53.9668 95.216L53.7108 95.536C53.4548 95.8347 53.1561 96.1973 52.8148 96.624C52.5161 97.008 52.1961 97.328 51.8548 97.584C51.4708 97.8827 51.1721 98.032 50.9588 98.032ZM41.2308 118.192C40.9748 118.192 40.8468 118.043 40.8468 117.744C40.8468 117.531 40.9108 117.275 41.0388 116.976C41.3801 116.251 41.7641 115.227 42.1908 113.904C42.6601 112.581 43.2361 111.451 43.9188 110.512C44.3881 109.573 44.8148 108.656 45.1988 107.76C45.6254 106.821 46.0308 105.883 46.4148 104.944C46.4148 104.944 46.3721 104.923 46.2868 104.88C46.2441 104.795 46.2228 104.709 46.2228 104.624C45.9668 104.453 45.6894 104.219 45.3908 103.92C45.1348 103.579 45.1134 103.237 45.3268 102.896C45.4121 102.811 45.4761 102.768 45.5188 102.768C45.5614 102.768 45.5828 102.768 45.5828 102.768C45.5828 102.725 45.5614 102.704 45.5188 102.704C45.5188 102.661 45.5188 102.64 45.5188 102.64C45.5188 102.469 45.6041 102.363 45.7748 102.32C45.9454 102.277 46.0308 102.213 46.0308 102.128C46.1161 101.531 46.6281 101.083 47.5668 100.784C48.5054 100.485 49.3374 100.336 50.0628 100.336C50.7881 100.336 51.1508 100.443 51.1508 100.656C51.1508 100.741 51.0228 100.891 50.7668 101.104C50.6388 101.189 50.4254 101.381 50.1267 101.68C49.8281 101.979 49.5508 102.341 49.2948 102.768L48.7828 103.536C48.7401 103.621 48.6761 103.728 48.5908 103.856C48.5481 103.941 48.4841 104.027 48.3988 104.112C47.7161 105.349 47.1614 106.395 46.7348 107.248C46.3081 108.101 45.7961 109.189 45.1988 110.512C45.1134 110.768 45.0708 110.939 45.0708 111.024C45.0708 111.323 45.2414 111.472 45.5828 111.472C45.8388 111.472 46.0948 111.408 46.3508 111.28L46.9908 111.024C48.0148 110.085 49.0814 109.296 50.1908 108.656C50.2334 108.656 50.2548 108.656 50.2548 108.656C50.2974 108.613 50.3401 108.592 50.3828 108.592C50.5108 108.592 50.5961 108.677 50.6388 108.848C50.6814 108.976 50.6388 109.083 50.5108 109.168C49.2734 109.851 48.1214 110.725 47.0548 111.792C47.0121 111.877 46.9694 111.963 46.9268 112.048C46.8841 112.133 46.8201 112.219 46.7348 112.304C46.6494 112.389 46.5214 112.539 46.3508 112.752C46.2228 112.965 46.1588 113.093 46.1588 113.136C46.1161 113.264 46.0521 113.307 45.9668 113.264C45.9241 113.221 45.7961 113.285 45.5828 113.456C45.5401 113.499 45.4974 113.584 45.4548 113.712C45.4548 113.84 45.4334 113.947 45.3908 114.032C45.3481 114.16 45.2628 114.267 45.1348 114.352C45.0494 114.395 45.0068 114.437 45.0068 114.48C44.9641 114.651 44.8788 114.757 44.7508 114.8C44.6654 114.8 44.5801 114.843 44.4948 114.928C44.4521 114.971 44.4521 115.035 44.4948 115.12C44.5374 115.205 44.5161 115.291 44.4308 115.376C44.3881 115.504 44.3454 115.568 44.3028 115.568C44.2601 115.525 44.1961 115.547 44.1108 115.632C43.9401 115.803 43.8121 115.888 43.7268 115.888C43.4708 115.973 43.3641 116.037 43.4068 116.08C43.4921 116.123 43.5561 116.165 43.5988 116.208C43.6841 116.208 43.6201 116.272 43.4068 116.4C43.3214 116.443 43.2361 116.571 43.1508 116.784C43.0654 116.955 42.9801 117.083 42.8948 117.168C42.7668 117.253 42.6388 117.317 42.5108 117.36C42.4254 117.403 42.3188 117.488 42.1908 117.616C41.8068 118 41.4868 118.192 41.2308 118.192ZM57.3583 118.256C57.3156 118.256 57.2516 118.213 57.1663 118.128C57.0809 118.085 57.0169 118.064 56.9743 118.064C56.8036 118.107 56.6543 118.128 56.5263 118.128C56.3983 118.128 56.2703 118.128 56.1423 118.128C56.0996 118.128 56.0569 118.107 56.0143 118.064C56.0143 118.021 55.9929 118 55.9503 118C55.9076 118 55.8863 118 55.8863 118C55.9289 118.043 55.9289 118.064 55.8863 118.064C55.8863 118.064 55.8436 118.043 55.7583 118C55.6729 117.957 55.6089 117.936 55.5663 117.936L55.5023 117.872C55.4169 117.872 55.3529 117.851 55.3103 117.808C55.3103 117.765 55.2889 117.744 55.2463 117.744L55.1823 117.808L55.1183 117.744C55.0329 117.701 54.9049 117.659 54.7343 117.616C54.6063 117.531 54.4996 117.467 54.4143 117.424C54.3289 117.424 54.2223 117.36 54.0943 117.232H53.9663C53.8809 117.104 53.7316 117.019 53.5182 116.976C53.5182 116.933 53.4969 116.891 53.4543 116.848H53.3903C53.3049 116.72 53.2409 116.677 53.1983 116.72C53.1556 116.635 53.0916 116.571 53.0063 116.528C52.9636 116.443 52.8996 116.379 52.8143 116.336C52.8143 116.165 52.7716 116.08 52.6863 116.08C52.6863 115.995 52.6009 115.867 52.4303 115.696C52.3023 115.525 52.2169 115.376 52.1743 115.248L52.1103 115.184C51.9396 115.013 51.8116 114.736 51.7263 114.352C51.6836 114.181 51.6409 114.117 51.5983 114.16C51.5983 114.203 51.5769 114.096 51.5343 113.84C51.5343 113.797 51.5343 113.733 51.5343 113.648C51.5769 113.52 51.5769 113.435 51.5343 113.392C51.5343 113.349 51.5129 113.328 51.4703 113.328C51.4703 113.285 51.4703 113.243 51.4703 113.2C51.4276 113.157 51.4062 113.136 51.4062 113.136C51.4489 113.093 51.4703 113.072 51.4703 113.072C51.4703 112.987 51.4489 112.944 51.4062 112.944C51.4062 112.901 51.4062 112.859 51.4062 112.816V112.688C51.4062 112.475 51.4489 112.325 51.5343 112.24C51.5343 112.155 51.5556 112.091 51.5983 112.048C51.6409 112.005 51.6623 111.963 51.6623 111.92C51.6623 111.835 51.7049 111.792 51.7903 111.792C51.8756 111.792 51.9183 111.771 51.9183 111.728C51.9183 111.643 51.9396 111.6 51.9823 111.6C52.0676 111.557 52.1316 111.515 52.1743 111.472C52.1743 111.429 52.1956 111.387 52.2383 111.344C52.3236 111.301 52.3663 111.259 52.3663 111.216C52.5796 111.088 52.8143 111.024 53.0703 111.024C53.5823 111.024 53.8383 111.152 53.8383 111.408C53.8383 111.493 53.7103 111.643 53.4543 111.856C53.4116 111.984 53.3903 112.069 53.3903 112.112C53.4329 112.112 53.4116 112.155 53.3263 112.24C53.3689 112.368 53.3903 112.539 53.3903 112.752C53.3476 112.752 53.3263 112.816 53.3263 112.944C53.3689 113.029 53.3903 113.072 53.3903 113.072C53.3903 113.115 53.4116 113.243 53.4543 113.456C53.5396 113.669 53.6036 113.797 53.6463 113.84C53.6463 113.84 53.6889 113.947 53.7743 114.16C53.8596 114.331 53.9023 114.437 53.9023 114.48V114.608C53.9876 114.736 54.0303 114.821 54.0303 114.864C54.0729 114.864 54.2436 114.949 54.5423 115.12C54.5849 115.163 54.6703 115.184 54.7983 115.184C55.0116 115.312 55.1609 115.419 55.2463 115.504C55.3743 115.589 55.6729 115.675 56.1423 115.76C56.3129 115.803 56.3769 115.845 56.3343 115.888C56.3343 115.888 56.4196 115.888 56.5903 115.888C56.5903 115.888 56.5903 115.909 56.5903 115.952C56.5903 115.952 56.6116 115.952 56.6543 115.952C56.7396 115.909 56.8249 115.909 56.9103 115.952C56.9956 115.952 57.0809 115.931 57.1663 115.888H57.4223C57.7209 115.888 58.0409 115.845 58.3823 115.76L59.3423 115.504C59.6409 115.461 59.9183 115.376 60.1743 115.248C60.4303 115.12 60.6649 114.992 60.8783 114.864C60.9209 114.864 61.0489 114.8 61.2623 114.672C61.4756 114.501 61.7316 114.331 62.0303 114.16C61.9876 114.032 61.9663 113.861 61.9663 113.648C61.9663 113.52 62.0303 113.456 62.1583 113.456C62.2863 113.413 62.3716 113.349 62.4143 113.264C62.2863 113.179 62.1156 113.136 61.9023 113.136C61.7316 113.136 61.6676 113.072 61.7103 112.944C61.5396 112.005 61.2836 111.152 60.9423 110.384C60.6436 109.616 60.2809 108.763 59.8542 107.824C59.8116 107.696 59.7263 107.483 59.5983 107.184C59.4703 106.885 59.3849 106.651 59.3423 106.48C59.3423 106.437 59.3849 106.437 59.4703 106.48C59.5556 106.48 59.5769 106.459 59.5343 106.416C59.4916 106.203 59.4489 105.989 59.4062 105.776C59.4062 105.563 59.3849 105.371 59.3423 105.2C59.2996 105.115 59.3423 105.051 59.4703 105.008C59.5983 104.965 59.6409 104.901 59.5983 104.816C59.5556 104.731 59.4703 104.709 59.3423 104.752C59.2143 104.795 59.1289 104.773 59.0863 104.688L58.8943 103.92C58.8943 103.707 58.8516 103.579 58.7663 103.536C58.7236 103.493 58.7663 103.408 58.8943 103.28C58.9796 103.237 59.0223 103.173 59.0223 103.088C59.0223 102.96 59.0436 102.875 59.0863 102.832C59.2996 102.704 59.3849 102.555 59.3423 102.384C59.2996 102.171 59.3423 101.979 59.4703 101.808C59.5983 101.637 59.7049 101.488 59.7903 101.36C59.8756 101.189 60.0036 101.083 60.1743 101.04C60.3023 100.955 60.3449 100.976 60.3023 101.104C60.2596 101.232 60.2596 101.296 60.3023 101.296C60.5156 101.296 60.6009 101.189 60.5583 100.976C60.5156 100.763 60.5796 100.571 60.7503 100.4C61.0489 100.144 61.4969 99.9307 62.0943 99.76C62.6916 99.5893 63.1396 99.4827 63.4383 99.44C63.5236 99.44 63.5876 99.44 63.6303 99.44C63.7156 99.3973 63.7796 99.376 63.8223 99.376C64.0356 99.376 64.2489 99.3973 64.4623 99.44C64.7183 99.4827 64.9529 99.5253 65.1663 99.568C65.3369 99.6107 65.5929 99.7813 65.9343 100.08C66.2756 100.336 66.5316 100.4 66.7023 100.272C67.0863 99.9307 67.4916 99.632 67.9183 99.376C68.3876 99.12 68.6863 99.0133 68.8143 99.056C69.1556 99.0987 69.4543 99.2053 69.7103 99.376C69.9663 99.504 70.0516 99.9307 69.9663 100.656C69.9236 100.912 69.8169 101.125 69.6463 101.296C69.5183 101.424 69.3903 101.595 69.2623 101.808L68.8143 102.448C68.6436 102.747 68.4303 103.045 68.1743 103.344C67.9609 103.643 67.7689 103.835 67.5983 103.92C67.4276 104.005 67.2569 104.155 67.0863 104.368C66.9583 104.539 66.7876 104.709 66.5743 104.88C66.3609 105.051 66.1263 105.179 65.8703 105.264C65.6569 105.307 65.5076 105.349 65.4223 105.392C65.2943 105.435 65.1023 105.456 64.8463 105.456C64.6329 105.413 64.5689 105.328 64.6543 105.2C64.7396 105.157 64.7609 105.115 64.7183 105.072C64.6756 104.987 64.6543 104.923 64.6543 104.88C64.6543 104.795 64.6969 104.731 64.7823 104.688C64.9103 104.645 64.9956 104.581 65.0383 104.496C65.0809 104.453 65.1876 104.304 65.3583 104.048C65.5716 103.792 65.6569 103.643 65.6143 103.6C65.6143 103.472 65.6569 103.365 65.7423 103.28C65.7423 103.195 65.7423 103.131 65.7423 103.088C65.7423 103.003 65.7849 102.939 65.8703 102.896C66.0409 102.853 66.1263 102.789 66.1263 102.704V101.936C66.1263 101.765 66.1049 101.595 66.0623 101.424C66.0623 101.253 66.0196 101.104 65.9343 100.976C65.5929 100.549 65.0383 100.336 64.2703 100.336C63.7156 100.336 63.1823 100.464 62.6703 100.72C62.1156 100.976 61.6463 101.403 61.2623 102C60.9636 102.427 60.8142 102.875 60.8142 103.344C60.8142 103.685 60.8783 104.027 61.0063 104.368C61.1769 104.709 61.3263 105.029 61.4543 105.328C61.5823 105.627 61.7529 105.989 61.9663 106.416C62.2223 106.843 62.4143 107.184 62.5423 107.44C62.7556 107.781 62.9903 108.187 63.2463 108.656C63.5023 109.083 63.6943 109.488 63.8223 109.872C63.8649 109.915 63.8223 109.957 63.6943 110C63.6089 110 63.5876 110.043 63.6303 110.128C63.6729 110.213 63.7369 110.256 63.8223 110.256C63.9076 110.256 63.9716 110.299 64.0143 110.384C64.0996 110.512 64.0996 110.619 64.0143 110.704C63.9716 110.789 63.9716 110.917 64.0143 111.088C64.0143 111.131 64.0569 111.173 64.1423 111.216C64.2276 111.259 64.2703 111.301 64.2703 111.344C64.4836 111.899 64.5903 112.347 64.5903 112.688C64.9743 112.475 65.4009 112.219 65.8703 111.92C66.3396 111.621 66.5956 111.344 66.6383 111.088C66.6809 111.003 66.7449 110.981 66.8303 111.024C66.9583 111.024 67.0223 111.067 67.0223 111.152C66.9796 111.451 66.6169 111.856 65.9343 112.368C65.2943 112.88 64.8036 113.243 64.4623 113.456C64.5049 113.499 64.4836 113.605 64.3983 113.776C64.3129 113.947 64.2916 114.075 64.3343 114.16C64.3343 114.203 64.3129 114.267 64.2703 114.352C64.2276 114.395 64.1849 114.459 64.1423 114.544C64.1423 114.715 64.0996 114.843 64.0143 114.928V115.056L63.8223 115.184C63.7796 115.227 63.7156 115.333 63.6303 115.504C63.5876 115.632 63.5236 115.739 63.4383 115.824H63.2463C63.1609 115.909 63.1183 116.016 63.1183 116.144C63.0329 116.272 62.8409 116.421 62.5423 116.592C62.2436 116.72 62.0516 116.848 61.9663 116.976C61.9663 116.976 61.9449 116.976 61.9023 116.976C61.8596 116.976 61.7956 117.019 61.7103 117.104H61.5183C61.4756 117.104 61.4329 117.147 61.3903 117.232C61.3476 117.275 61.3049 117.317 61.2623 117.36C61.1343 117.36 61.0703 117.403 61.0703 117.488C60.8996 117.488 60.7716 117.509 60.6863 117.552L60.0463 117.68C59.8756 117.851 59.7263 117.936 59.5983 117.936L59.5343 117.872C59.4489 117.957 59.3849 118 59.3423 118H59.0863C59.0436 118 59.0009 118.021 58.9583 118.064C58.9156 118.107 58.8729 118.128 58.8303 118.128H58.7023C58.6596 118.128 58.6169 118.128 58.5743 118.128C58.5743 118.171 58.5316 118.192 58.4463 118.192C58.3183 118.192 58.1263 118.192 57.8703 118.192C57.6569 118.192 57.4863 118.213 57.3583 118.256ZM56.7183 117.68C56.7183 117.68 56.7609 117.68 56.8463 117.68C56.9743 117.637 57.0596 117.616 57.1023 117.616C57.3156 117.616 57.5076 117.637 57.6783 117.68C57.8489 117.68 58.0196 117.68 58.1903 117.68C58.2756 117.68 58.3183 117.637 58.3183 117.552H58.4463C58.5743 117.424 58.6383 117.403 58.6383 117.488C58.6809 117.573 58.7449 117.573 58.8303 117.488C58.9156 117.488 58.9583 117.467 58.9583 117.424L59.2143 117.296C59.2569 117.296 59.2783 117.296 59.2783 117.296C59.2783 117.253 59.2996 117.232 59.3423 117.232H59.4703C59.5556 117.232 59.6409 117.189 59.7263 117.104C59.8116 117.019 59.8542 116.976 59.8542 116.976C59.8542 116.976 59.9183 116.912 60.0463 116.784C60.0463 116.784 60.0676 116.784 60.1103 116.784C60.1529 116.741 60.1956 116.72 60.2383 116.72C60.3236 116.635 60.4089 116.592 60.4943 116.592C60.4943 116.549 60.5369 116.507 60.6223 116.464C60.7076 116.379 60.7503 116.336 60.7503 116.336C60.7929 116.293 60.8356 116.272 60.8783 116.272C60.9636 116.229 61.0063 116.187 61.0063 116.144C61.0916 116.144 61.2623 115.995 61.5183 115.696C61.7743 115.397 61.9449 115.035 62.0303 114.608C62.0303 114.523 61.9023 114.587 61.6463 114.8C61.3903 114.971 61.2623 115.056 61.2623 115.056C61.1343 115.099 61.0063 115.184 60.8783 115.312C60.7503 115.397 60.6436 115.44 60.5583 115.44C60.5156 115.44 60.4516 115.483 60.3663 115.568C60.3236 115.611 60.2809 115.632 60.2383 115.632C60.1956 115.632 60.1743 115.653 60.1743 115.696C60.1743 115.696 60.1316 115.675 60.0463 115.632C60.0036 115.717 59.8756 115.803 59.6623 115.888C59.4489 115.973 59.2996 116.016 59.2143 116.016H59.0223L58.9583 116.08C58.9583 116.08 58.9369 116.101 58.8943 116.144C58.8516 116.144 58.8089 116.144 58.7663 116.144L58.3183 116.208H58.2543C58.2116 116.208 58.1689 116.229 58.1263 116.272C57.9556 116.272 57.7636 116.293 57.5503 116.336C57.3369 116.379 57.2089 116.4 57.1663 116.4H57.1023C57.1023 116.357 57.0809 116.336 57.0383 116.336V116.4H56.7183C56.5903 116.4 56.4409 116.379 56.2703 116.336C56.1423 116.251 56.0356 116.208 55.9503 116.208C55.9076 116.208 55.8863 116.229 55.8863 116.272C55.8863 116.272 55.8649 116.272 55.8223 116.272H55.6943C55.6516 116.272 55.6302 116.251 55.6302 116.208H55.3103C55.3103 116.08 55.2676 116.059 55.1823 116.144H55.1183C54.9476 116.144 54.7983 116.08 54.6703 115.952C54.5849 115.824 54.4356 115.76 54.2223 115.76L54.0303 115.568C54.0303 115.611 54.0089 115.653 53.9663 115.696C53.9663 115.696 53.9663 115.717 53.9663 115.76C53.9663 115.76 53.9876 115.803 54.0303 115.888C54.1156 115.931 54.1583 115.973 54.1583 116.016L54.2863 116.272L54.5423 116.592L54.6703 116.72C54.7129 116.763 54.7343 116.784 54.7343 116.784C54.7769 116.784 54.8196 116.827 54.8623 116.912C54.9476 116.912 54.9903 116.976 54.9903 117.104C55.7156 117.488 56.2916 117.68 56.7183 117.68ZM71.5318 118.192C71.2758 118.192 71.1478 118.043 71.1478 117.744C71.1478 117.531 71.2118 117.275 71.3398 116.976C71.6811 116.251 72.0651 115.227 72.4918 113.904C72.9611 112.581 73.5371 111.451 74.2198 110.512L77.4198 103.92C77.1638 103.92 76.9078 103.984 76.6518 104.112C76.4384 104.24 76.3318 104.347 76.3318 104.432C76.3318 104.603 76.0971 104.773 75.6278 104.944C75.1584 105.115 74.9024 105.221 74.8598 105.264C74.2198 105.435 73.6224 105.627 73.0677 105.84C72.6411 106.309 72.2144 106.779 71.7878 107.248C71.4038 107.717 71.0411 108.187 70.6998 108.656C70.6571 108.699 70.6144 108.72 70.5718 108.72C70.1878 109.147 69.8678 109.467 69.6118 109.68C69.3558 109.893 69.0784 110.085 68.7797 110.256C68.6091 110.384 68.4384 110.427 68.2677 110.384C68.0544 110.299 68.0331 110.213 68.2037 110.128C68.4171 110.043 68.7584 109.744 69.2278 109.232C69.6971 108.72 70.0598 108.336 70.3158 108.08C70.5291 107.952 70.5931 107.952 70.5078 108.08C70.4651 108.208 70.5291 108.187 70.6998 108.016L72.2998 105.968L72.3638 105.904C72.1504 105.776 72.0438 105.435 72.0438 104.88C72.0438 104.453 72.1291 104.112 72.2998 103.856C72.2998 103.813 72.3424 103.792 72.4278 103.792L73.7718 103.408C73.8998 103.408 73.9851 103.387 74.0278 103.344C74.1131 103.259 74.1984 103.152 74.2838 103.024C74.4118 102.853 74.5611 102.64 74.7318 102.384L75.4998 101.36L76.0118 100.656C76.0118 100.528 76.0971 100.379 76.2678 100.208C76.4811 99.9947 76.6518 99.8453 76.7798 99.76C76.9504 99.504 77.0571 99.312 77.0998 99.184C77.1851 99.0133 77.3131 98.8 77.4838 98.544C77.4838 98.5013 77.5478 98.48 77.6758 98.48C77.8038 98.4373 77.8678 98.3947 77.8678 98.352C77.9104 97.9253 77.9744 97.7333 78.0598 97.776C78.1878 97.776 78.2517 97.712 78.2517 97.584C78.2517 97.456 78.3371 97.3493 78.5078 97.264L78.8278 96.88C78.8278 96.8373 78.8918 96.752 79.0198 96.624V96.56C79.0198 96.4747 79.0198 96.368 79.0198 96.24C79.0198 96.112 79.0624 95.984 79.1478 95.856C79.2331 95.7707 79.2971 95.728 79.3398 95.728C79.3824 95.728 79.4038 95.728 79.4038 95.728C79.4038 95.6853 79.3824 95.664 79.3398 95.664C79.3398 95.6213 79.3398 95.6 79.3398 95.6C79.3398 95.4293 79.4251 95.3227 79.5958 95.28C79.7664 95.2373 79.8518 95.1733 79.8518 95.088C79.9371 94.4907 80.4491 94.0427 81.3878 93.744C82.3264 93.4453 83.1584 93.296 83.8838 93.296C84.6091 93.296 84.9718 93.4027 84.9718 93.616C84.9718 93.7013 84.8438 93.8507 84.5878 94.064C84.4598 94.1067 84.2464 94.2987 83.9478 94.64C83.6491 94.9387 83.3718 95.3013 83.1158 95.728L82.6038 96.496C82.5611 96.5813 82.4971 96.688 82.4118 96.816C82.3691 96.9013 82.3051 96.9867 82.2198 97.072C81.9211 97.584 81.5158 98.3093 81.0038 99.248C80.5344 100.144 80.0224 101.147 79.4678 102.256L81.1318 102.064C81.2598 102.064 81.3024 102.085 81.2598 102.128C81.2598 102.171 81.3238 102.171 81.4518 102.128C81.6651 102.128 81.8144 102.107 81.8998 102.064C81.9851 101.979 82.1344 101.915 82.3478 101.872C82.6891 101.829 83.0731 101.808 83.4998 101.808C83.9691 101.765 84.3318 101.744 84.5878 101.744C84.7584 101.744 84.9718 101.744 85.2278 101.744C85.4838 101.744 85.6758 101.765 85.8038 101.808C85.8891 101.808 85.9104 101.851 85.8678 101.936C85.8678 101.979 85.8891 102 85.9318 102C86.0171 102 86.0811 101.979 86.1238 101.936C86.2091 101.893 86.2944 101.872 86.3798 101.872C86.4224 101.829 86.4864 101.829 86.5718 101.872C86.6998 101.872 86.7851 101.872 86.8278 101.872L87.4678 102.064C87.7238 102.107 87.8518 102.256 87.8518 102.512C87.8944 102.768 87.7878 102.853 87.5318 102.768C87.3611 102.683 87.2118 102.64 87.0838 102.64H85.4838C85.1851 102.64 84.9078 102.64 84.6518 102.64C84.3958 102.64 84.1398 102.661 83.8838 102.704C83.7984 102.747 83.7558 102.704 83.7558 102.576C83.7984 102.448 83.7771 102.384 83.6918 102.384C83.6491 102.384 83.5851 102.448 83.4998 102.576C83.4144 102.661 83.3504 102.704 83.3078 102.704L82.9878 102.896C82.3051 103.067 81.5798 103.259 80.8118 103.472C80.0438 103.643 79.2971 103.835 78.5718 104.048C77.9318 105.371 77.3131 106.629 76.7158 107.824C76.1611 108.976 75.7344 109.872 75.4358 110.512C75.3504 110.768 75.3078 110.917 75.3078 110.96C75.3078 111.301 75.4998 111.472 75.8838 111.472C76.1398 111.472 76.3958 111.408 76.6518 111.28L77.2917 111.024C78.3158 110.085 79.3824 109.296 80.4918 108.656C80.5344 108.656 80.5558 108.656 80.5558 108.656C80.5984 108.613 80.6411 108.592 80.6838 108.592C80.8118 108.592 80.8971 108.677 80.9398 108.848C80.9824 108.976 80.9398 109.083 80.8118 109.168C79.5744 109.851 78.4224 110.725 77.3558 111.792C77.3131 111.877 77.2704 111.963 77.2278 112.048C77.1851 112.133 77.1211 112.219 77.0358 112.304C76.9504 112.389 76.8224 112.539 76.6518 112.752C76.5238 112.965 76.4598 113.093 76.4598 113.136C76.4171 113.264 76.3531 113.307 76.2678 113.264C76.2251 113.221 76.0971 113.285 75.8838 113.456C75.8411 113.499 75.7984 113.584 75.7558 113.712C75.7558 113.84 75.7344 113.947 75.6918 114.032C75.6064 114.16 75.5211 114.267 75.4358 114.352C75.3504 114.395 75.3078 114.437 75.3078 114.48C75.2651 114.651 75.1798 114.757 75.0518 114.8C74.9664 114.8 74.8811 114.843 74.7958 114.928C74.7531 114.928 74.7318 114.949 74.7318 114.992C74.7318 115.376 74.6891 115.547 74.6038 115.504C74.5184 115.461 74.4544 115.504 74.4118 115.632C74.2411 115.803 74.1131 115.888 74.0278 115.888C73.7718 115.973 73.6651 116.037 73.7078 116.08C73.7931 116.123 73.8571 116.165 73.8998 116.208C73.9851 116.208 73.9211 116.272 73.7078 116.4C73.6224 116.443 73.5371 116.571 73.4518 116.784C73.3664 116.955 73.2811 117.083 73.1958 117.168C73.0678 117.253 72.9398 117.317 72.8118 117.36C72.6838 117.403 72.5771 117.488 72.4918 117.616C72.1078 118 71.7878 118.192 71.5318 118.192ZM75.1798 103.152C75.3504 103.109 75.4998 103.067 75.6278 103.024C75.7984 102.981 75.9691 102.917 76.1398 102.832L78.0598 102.512C78.5718 101.488 79.0198 100.571 79.4038 99.76C79.7878 98.9067 80.0651 98.288 80.2358 97.904C80.2358 97.904 80.1931 97.8827 80.1078 97.84C80.0651 97.7547 80.0438 97.6693 80.0438 97.584C79.9584 97.5413 79.8518 97.4773 79.7238 97.392C79.6384 97.3067 79.5531 97.2427 79.4678 97.2L78.8918 97.776L78.1878 98.736C78.1878 98.7787 78.1238 98.8213 77.9958 98.864C77.9104 98.864 77.8678 98.8853 77.8678 98.928C77.8678 99.056 77.8038 99.184 77.6758 99.312C77.5904 99.44 77.5051 99.4827 77.4198 99.44L77.1638 100.08C77.1638 100.208 77.0998 100.315 76.9718 100.4L76.5238 100.976C76.5238 101.019 76.5024 101.061 76.4598 101.104C76.4598 101.104 76.4598 101.147 76.4598 101.232C76.4171 101.317 76.3531 101.424 76.2678 101.552C76.1824 101.68 76.0758 101.808 75.9478 101.936C75.9051 101.936 75.8838 101.957 75.8838 102C75.8838 102 75.8624 102 75.8198 102L75.6278 102.384C75.4571 102.469 75.3504 102.512 75.3078 102.512L75.2438 102.64C75.2438 102.896 75.2224 103.067 75.1798 103.152ZM93.5838 98.032C93.4558 98.032 93.3278 97.9893 93.1998 97.904C93.1144 97.8187 92.9864 97.712 92.8158 97.584C92.7304 97.5413 92.6238 97.4987 92.4958 97.456C92.4104 97.3707 92.3678 97.2427 92.3678 97.072C92.3251 97.0293 92.2398 97.008 92.1118 97.008C91.8984 97.008 91.7917 96.8587 91.7917 96.56C91.7917 96.2187 91.9624 95.984 92.3038 95.856L92.6238 95.6V95.664L92.8798 95.344H93.0078C93.2638 95.344 93.4344 95.216 93.5198 94.96C93.6478 94.704 93.9038 94.5333 94.2878 94.448C94.5438 94.3627 94.7571 94.384 94.9278 94.512C95.0984 94.64 95.3118 94.704 95.5678 94.704C95.8238 94.704 96.1011 94.6187 96.3998 94.448L97.3598 94.256C97.4878 94.256 97.5518 94.2987 97.5518 94.384C97.5518 94.4693 97.4238 94.576 97.1678 94.704C96.9544 94.832 96.8051 94.9387 96.7198 95.024L96.6558 95.088L96.5918 95.216L96.3358 95.536C96.0798 95.8347 95.7811 96.1973 95.4398 96.624C95.1411 97.008 94.8211 97.328 94.4798 97.584C94.0958 97.8827 93.7971 98.032 93.5838 98.032ZM83.8558 118.192C83.5998 118.192 83.4718 118.043 83.4718 117.744C83.4718 117.531 83.5358 117.275 83.6638 116.976C84.0051 116.251 84.3891 115.227 84.8158 113.904C85.2851 112.581 85.8611 111.451 86.5438 110.512C87.0131 109.573 87.4398 108.656 87.8238 107.76C88.2504 106.821 88.6558 105.883 89.0398 104.944C89.0398 104.944 88.9971 104.923 88.9118 104.88C88.8691 104.795 88.8478 104.709 88.8478 104.624C88.5918 104.453 88.3144 104.219 88.0158 103.92C87.7598 103.579 87.7384 103.237 87.9518 102.896C88.0371 102.811 88.1011 102.768 88.1438 102.768C88.1864 102.768 88.2078 102.768 88.2078 102.768C88.2078 102.725 88.1864 102.704 88.1438 102.704C88.1438 102.661 88.1438 102.64 88.1438 102.64C88.1438 102.469 88.2291 102.363 88.3998 102.32C88.5704 102.277 88.6558 102.213 88.6558 102.128C88.7411 101.531 89.2531 101.083 90.1918 100.784C91.1304 100.485 91.9624 100.336 92.6878 100.336C93.4131 100.336 93.7758 100.443 93.7758 100.656C93.7758 100.741 93.6478 100.891 93.3918 101.104C93.2638 101.189 93.0504 101.381 92.7517 101.68C92.4531 101.979 92.1758 102.341 91.9198 102.768L91.4078 103.536C91.3651 103.621 91.3011 103.728 91.2158 103.856C91.1731 103.941 91.1091 104.027 91.0238 104.112C90.3411 105.349 89.7864 106.395 89.3598 107.248C88.9331 108.101 88.4211 109.189 87.8238 110.512C87.7384 110.768 87.6958 110.939 87.6958 111.024C87.6958 111.323 87.8664 111.472 88.2078 111.472C88.4638 111.472 88.7198 111.408 88.9758 111.28L89.6158 111.024C90.6398 110.085 91.7064 109.296 92.8158 108.656C92.8584 108.656 92.8798 108.656 92.8798 108.656C92.9224 108.613 92.9651 108.592 93.0078 108.592C93.1358 108.592 93.2211 108.677 93.2638 108.848C93.3064 108.976 93.2638 109.083 93.1358 109.168C91.8984 109.851 90.7464 110.725 89.6798 111.792C89.6371 111.877 89.5944 111.963 89.5518 112.048C89.5091 112.133 89.4451 112.219 89.3598 112.304C89.2744 112.389 89.1464 112.539 88.9758 112.752C88.8478 112.965 88.7838 113.093 88.7838 113.136C88.7411 113.264 88.6771 113.307 88.5918 113.264C88.5491 113.221 88.4211 113.285 88.2078 113.456C88.1651 113.499 88.1224 113.584 88.0798 113.712C88.0798 113.84 88.0584 113.947 88.0158 114.032C87.9731 114.16 87.8878 114.267 87.7598 114.352C87.6744 114.395 87.6318 114.437 87.6318 114.48C87.5891 114.651 87.5038 114.757 87.3758 114.8C87.2904 114.8 87.2051 114.843 87.1198 114.928C87.0771 114.971 87.0771 115.035 87.1198 115.12C87.1624 115.205 87.1411 115.291 87.0558 115.376C87.0131 115.504 86.9704 115.568 86.9278 115.568C86.8851 115.525 86.8211 115.547 86.7358 115.632C86.5651 115.803 86.4371 115.888 86.3518 115.888C86.0958 115.973 85.9891 116.037 86.0318 116.08C86.1171 116.123 86.1811 116.165 86.2238 116.208C86.3091 116.208 86.2451 116.272 86.0318 116.4C85.9464 116.443 85.8611 116.571 85.7758 116.784C85.6904 116.955 85.6051 117.083 85.5198 117.168C85.3918 117.253 85.2638 117.317 85.1358 117.36C85.0504 117.403 84.9438 117.488 84.8158 117.616C84.4318 118 84.1118 118.192 83.8558 118.192ZM94.4153 118.192C94.1593 118.192 94.0312 118.043 94.0312 117.744C94.0312 117.531 94.0953 117.275 94.2233 116.976C94.5646 116.251 94.9699 115.227 95.4393 113.904C95.9086 112.581 96.4846 111.451 97.1673 110.512L99.6633 104.944C99.6633 104.944 99.6206 104.923 99.5353 104.88C99.4499 104.795 99.4073 104.709 99.4073 104.624C99.1513 104.453 98.8739 104.219 98.5753 103.92C98.3193 103.579 98.2979 103.237 98.5113 102.896C98.5966 102.811 98.6606 102.768 98.7033 102.768C98.7459 102.768 98.7673 102.768 98.7673 102.768V102.64C98.7673 102.469 98.8313 102.363 98.9593 102.32C99.1299 102.277 99.2366 102.213 99.2793 102.128C99.3646 101.531 99.8553 101.083 100.751 100.784C101.69 100.485 102.522 100.336 103.247 100.336C103.973 100.336 104.335 100.443 104.335 100.656C104.335 100.784 104.207 100.933 103.951 101.104C103.866 101.189 103.653 101.381 103.311 101.68C103.013 101.979 102.735 102.341 102.479 102.768L102.031 103.536L101.583 104.112C100.901 105.349 100.346 106.395 99.9193 107.248C99.4926 108.101 98.9806 109.189 98.3833 110.512C98.2553 110.768 98.1913 110.981 98.1913 111.152C98.1913 111.365 98.2766 111.472 98.4473 111.472C98.5326 111.472 98.6179 111.451 98.7033 111.408C98.8313 111.323 98.9593 111.259 99.0873 111.216C99.4286 111.003 99.7059 110.811 99.9193 110.64C100.175 110.427 100.453 110.213 100.751 110C100.879 109.872 100.986 109.872 101.071 110C101.157 110.085 101.157 110.213 101.071 110.384C100.901 110.725 100.773 110.939 100.687 111.024C100.645 111.067 100.581 111.109 100.495 111.152C100.41 111.195 100.218 111.387 99.9193 111.728L99.6633 112.24C99.5779 112.325 99.4713 112.496 99.3433 112.752C99.2579 112.965 99.2153 113.093 99.2153 113.136C99.2153 113.221 99.1726 113.264 99.0873 113.264C99.0019 113.221 98.8739 113.285 98.7033 113.456C98.6606 113.499 98.6393 113.584 98.6393 113.712C98.6819 113.84 98.6606 113.947 98.5753 114.032C98.5326 114.16 98.4686 114.267 98.3833 114.352C98.2979 114.395 98.2552 114.437 98.2552 114.48C98.2126 114.651 98.1273 114.757 97.9993 114.8C97.9139 114.8 97.8286 114.843 97.7433 114.928C97.7006 114.928 97.6793 114.971 97.6793 115.056C97.6793 115.397 97.6366 115.547 97.5513 115.504C97.4659 115.461 97.3806 115.504 97.2953 115.632C97.2099 115.803 97.1033 115.888 96.9753 115.888C96.7193 115.973 96.6126 116.037 96.6553 116.08C96.6979 116.123 96.7619 116.165 96.8473 116.208C96.9326 116.208 96.8686 116.272 96.6553 116.4C96.5273 116.443 96.4206 116.571 96.3353 116.784C96.2499 116.955 96.1646 117.083 96.0793 117.168C95.9939 117.253 95.8873 117.317 95.7593 117.36C95.6313 117.403 95.5246 117.488 95.4393 117.616C95.0553 118 94.7139 118.192 94.4153 118.192ZM113.487 117.68C113.317 117.68 113.167 117.68 113.039 117.68C112.911 117.637 112.783 117.595 112.655 117.552C112.229 117.467 111.845 117.339 111.503 117.168C111.205 116.997 110.949 116.677 110.735 116.208C110.693 115.995 110.586 115.717 110.415 115.376C110.287 115.035 110.202 114.715 110.159 114.416C110.117 114.203 110.095 113.947 110.095 113.648C110.053 113.435 110.031 113.157 110.031 112.816C109.946 112.389 109.903 112.005 109.903 111.664C109.946 111.323 109.967 110.917 109.967 110.448C109.967 109.979 109.989 109.637 110.031 109.424C110.117 109.04 110.159 108.848 110.159 108.848C110.159 108.805 110.159 108.592 110.159 108.208C110.202 107.696 110.223 107.163 110.223 106.608C110.223 106.053 110.245 105.605 110.287 105.264C110.415 103.984 110.159 103.344 109.519 103.344C109.263 103.344 108.922 103.451 108.495 103.664C108.453 103.792 108.367 103.877 108.239 103.92C108.154 103.92 108.026 103.963 107.855 104.048L107.535 104.24C107.535 104.283 107.493 104.304 107.407 104.304C107.322 104.261 107.279 104.283 107.279 104.368C107.322 104.539 107.301 104.645 107.215 104.688C107.173 104.731 107.109 104.709 107.023 104.624L106.319 105.136C106.319 105.179 106.255 105.264 106.127 105.392L106.063 105.456C105.893 105.627 105.743 105.712 105.615 105.712L105.423 105.904C105.423 105.947 105.381 106.032 105.295 106.16C105.253 106.245 105.146 106.267 104.975 106.224L104.655 106.544C104.485 106.8 104.335 106.949 104.207 106.992C104.122 107.035 104.015 107.077 103.887 107.12L103.375 107.76L103.119 107.824C103.119 107.995 102.927 108.251 102.543 108.592C102.202 108.933 101.967 109.168 101.839 109.296C101.711 109.424 101.583 109.488 101.455 109.488C101.37 109.488 101.327 109.445 101.327 109.36C101.327 109.317 101.434 109.147 101.647 108.848C101.818 108.677 102.074 108.357 102.415 107.888C102.799 107.419 103.013 107.205 103.055 107.248C103.269 107.035 103.418 106.821 103.503 106.608C103.589 106.352 103.738 106.139 103.951 105.968C103.951 106.011 103.951 106.053 103.951 106.096C103.994 106.096 104.015 106.096 104.015 106.096C104.101 106.096 104.207 105.989 104.335 105.776C104.463 105.52 104.549 105.413 104.591 105.456L105.679 104.496C105.679 104.453 105.786 104.368 105.999 104.24C106.17 104.155 106.277 104.112 106.319 104.112C106.362 104.112 106.469 103.984 106.639 103.728L107.087 103.408C107.13 103.323 107.173 103.344 107.215 103.472C107.301 103.557 107.365 103.579 107.407 103.536L107.599 103.088C107.685 102.96 107.813 102.853 107.983 102.768C108.197 102.64 108.41 102.512 108.623 102.384C109.135 101.872 109.519 101.616 109.775 101.616H110.031C110.586 101.403 111.098 101.296 111.567 101.296C112.25 101.296 112.783 101.552 113.167 102.064C113.253 102.192 113.338 102.427 113.423 102.768C113.509 102.811 113.53 102.875 113.487 102.96C113.487 103.003 113.509 103.067 113.551 103.152C113.594 103.237 113.679 103.344 113.807 103.472C113.935 103.557 113.999 103.664 113.999 103.792V103.92C113.999 104.091 113.893 104.24 113.679 104.368C113.893 104.539 113.978 104.645 113.935 104.688C113.935 104.688 113.914 104.752 113.871 104.88L113.743 105.776C113.701 106.075 113.637 106.309 113.551 106.48C113.466 106.608 113.381 106.843 113.295 107.184C113.466 107.44 113.466 107.611 113.295 107.696H113.167L113.103 107.952C113.103 108.037 113.146 108.123 113.231 108.208L113.039 108.592C113.082 108.549 113.103 108.549 113.103 108.592C113.146 108.592 113.167 108.592 113.167 108.592C113.125 108.677 113.061 108.848 112.975 109.104C112.89 109.317 112.826 109.488 112.783 109.616C112.741 109.829 112.655 109.936 112.527 109.936C112.399 109.936 112.357 110.043 112.399 110.256C112.442 110.299 112.463 110.448 112.463 110.704C112.506 110.917 112.485 111.024 112.399 111.024L112.271 111.792V111.984C112.271 112.197 112.229 112.411 112.143 112.624C112.101 112.837 112.058 113.051 112.015 113.264C111.973 113.477 111.93 113.712 111.887 113.968C111.887 114.181 111.887 114.395 111.887 114.608C111.887 114.779 111.887 114.971 111.887 115.184C111.93 115.355 111.973 115.525 112.015 115.696C112.015 115.739 112.079 115.867 112.207 116.08C112.335 116.293 112.399 116.421 112.399 116.464L112.591 116.656C112.677 116.699 112.805 116.699 112.975 116.656C113.189 116.613 113.338 116.635 113.423 116.72C113.807 116.763 114.298 116.571 114.895 116.144C115.535 115.675 116.111 115.163 116.623 114.608C116.751 114.48 116.879 114.416 117.007 114.416C117.093 114.416 117.157 114.48 117.199 114.608C117.242 114.736 117.199 114.907 117.071 115.12C116.389 116.101 115.749 116.784 115.151 117.168C114.554 117.509 113.999 117.68 113.487 117.68ZM123.858 118.256C123.816 118.256 123.752 118.213 123.666 118.128C123.581 118.085 123.517 118.064 123.474 118.064C123.304 118.107 123.154 118.128 123.026 118.128C122.898 118.128 122.77 118.128 122.642 118.128C122.6 118.128 122.557 118.107 122.514 118.064C122.514 118.021 122.493 118 122.45 118C122.408 118 122.386 118 122.386 118C122.429 118.043 122.429 118.064 122.386 118.064C122.386 118.064 122.344 118.043 122.258 118C122.173 117.957 122.109 117.936 122.066 117.936L122.002 117.872C121.917 117.872 121.853 117.851 121.81 117.808C121.81 117.765 121.789 117.744 121.746 117.744L121.682 117.808L121.618 117.744C121.533 117.701 121.405 117.659 121.234 117.616C121.106 117.531 121 117.467 120.914 117.424C120.829 117.424 120.722 117.36 120.594 117.232H120.466C120.381 117.104 120.232 117.019 120.018 116.976C120.018 116.933 119.997 116.891 119.954 116.848H119.89C119.805 116.72 119.741 116.677 119.698 116.72C119.656 116.635 119.592 116.571 119.506 116.528C119.464 116.443 119.4 116.379 119.314 116.336C119.314 116.165 119.272 116.08 119.186 116.08C119.186 115.995 119.101 115.867 118.93 115.696C118.802 115.525 118.717 115.376 118.674 115.248L118.61 115.184C118.44 115.013 118.312 114.736 118.226 114.352C118.184 114.181 118.141 114.117 118.098 114.16C118.098 114.203 118.077 114.096 118.034 113.84C118.034 113.797 118.034 113.733 118.034 113.648C118.077 113.52 118.077 113.435 118.034 113.392C118.034 113.349 118.013 113.328 117.97 113.328C117.97 113.285 117.97 113.243 117.97 113.2C117.928 113.157 117.906 113.136 117.906 113.136C117.949 113.093 117.97 113.072 117.97 113.072C117.97 112.987 117.949 112.944 117.906 112.944C117.906 112.901 117.906 112.859 117.906 112.816V112.688C117.906 112.475 117.949 112.325 118.034 112.24C118.034 112.155 118.056 112.091 118.098 112.048C118.141 112.005 118.162 111.963 118.162 111.92C118.162 111.835 118.205 111.792 118.29 111.792C118.376 111.792 118.418 111.771 118.418 111.728C118.418 111.643 118.44 111.6 118.482 111.6C118.568 111.557 118.632 111.515 118.674 111.472C118.674 111.429 118.696 111.387 118.738 111.344C118.824 111.301 118.866 111.259 118.866 111.216C119.08 111.088 119.314 111.024 119.57 111.024C120.082 111.024 120.338 111.152 120.338 111.408C120.338 111.493 120.21 111.643 119.954 111.856C119.912 111.984 119.89 112.069 119.89 112.112C119.933 112.112 119.912 112.155 119.826 112.24C119.869 112.368 119.89 112.539 119.89 112.752C119.848 112.752 119.826 112.816 119.826 112.944C119.869 113.029 119.89 113.072 119.89 113.072C119.89 113.115 119.912 113.243 119.954 113.456C120.04 113.669 120.104 113.797 120.146 113.84C120.146 113.84 120.189 113.947 120.274 114.16C120.36 114.331 120.402 114.437 120.402 114.48V114.608C120.488 114.736 120.53 114.821 120.53 114.864C120.573 114.864 120.744 114.949 121.042 115.12C121.085 115.163 121.17 115.184 121.298 115.184C121.512 115.312 121.661 115.419 121.746 115.504C121.874 115.589 122.173 115.675 122.642 115.76C122.813 115.803 122.877 115.845 122.834 115.888C122.834 115.888 122.92 115.888 123.09 115.888C123.09 115.888 123.09 115.909 123.09 115.952C123.09 115.952 123.112 115.952 123.154 115.952C123.24 115.909 123.325 115.909 123.41 115.952C123.496 115.952 123.581 115.931 123.666 115.888H123.922C124.221 115.888 124.541 115.845 124.882 115.76L125.842 115.504C126.141 115.461 126.418 115.376 126.674 115.248C126.93 115.12 127.165 114.992 127.378 114.864C127.421 114.864 127.549 114.8 127.762 114.672C127.976 114.501 128.232 114.331 128.53 114.16C128.488 114.032 128.466 113.861 128.466 113.648C128.466 113.52 128.53 113.456 128.658 113.456C128.786 113.413 128.872 113.349 128.914 113.264C128.786 113.179 128.616 113.136 128.402 113.136C128.232 113.136 128.168 113.072 128.21 112.944C128.04 112.005 127.784 111.152 127.442 110.384C127.144 109.616 126.781 108.763 126.354 107.824C126.312 107.696 126.226 107.483 126.098 107.184C125.97 106.885 125.885 106.651 125.842 106.48C125.842 106.437 125.885 106.437 125.97 106.48C126.056 106.48 126.077 106.459 126.034 106.416C125.992 106.203 125.949 105.989 125.906 105.776C125.906 105.563 125.885 105.371 125.842 105.2C125.8 105.115 125.842 105.051 125.97 105.008C126.098 104.965 126.141 104.901 126.098 104.816C126.056 104.731 125.97 104.709 125.842 104.752C125.714 104.795 125.629 104.773 125.586 104.688L125.394 103.92C125.394 103.707 125.352 103.579 125.266 103.536C125.224 103.493 125.266 103.408 125.394 103.28C125.48 103.237 125.522 103.173 125.522 103.088C125.522 102.96 125.544 102.875 125.586 102.832C125.8 102.704 125.885 102.555 125.842 102.384C125.8 102.171 125.842 101.979 125.97 101.808C126.098 101.637 126.205 101.488 126.29 101.36C126.376 101.189 126.504 101.083 126.674 101.04C126.802 100.955 126.845 100.976 126.802 101.104C126.76 101.232 126.76 101.296 126.802 101.296C127.016 101.296 127.101 101.189 127.058 100.976C127.016 100.763 127.08 100.571 127.25 100.4C127.549 100.144 127.997 99.9307 128.594 99.76C129.192 99.5893 129.64 99.4827 129.938 99.44C130.024 99.44 130.088 99.44 130.13 99.44C130.216 99.3973 130.28 99.376 130.322 99.376C130.536 99.376 130.749 99.3973 130.962 99.44C131.218 99.4827 131.453 99.5253 131.666 99.568C131.837 99.6107 132.093 99.7813 132.434 100.08C132.776 100.336 133.032 100.4 133.202 100.272C133.586 99.9307 133.992 99.632 134.418 99.376C134.888 99.12 135.186 99.0133 135.314 99.056C135.656 99.0987 135.954 99.2053 136.21 99.376C136.466 99.504 136.552 99.9307 136.466 100.656C136.424 100.912 136.317 101.125 136.146 101.296C136.018 101.424 135.89 101.595 135.762 101.808L135.314 102.448C135.144 102.747 134.93 103.045 134.674 103.344C134.461 103.643 134.269 103.835 134.098 103.92C133.928 104.005 133.757 104.155 133.586 104.368C133.458 104.539 133.288 104.709 133.074 104.88C132.861 105.051 132.626 105.179 132.37 105.264C132.157 105.307 132.008 105.349 131.922 105.392C131.794 105.435 131.602 105.456 131.346 105.456C131.133 105.413 131.069 105.328 131.154 105.2C131.24 105.157 131.261 105.115 131.218 105.072C131.176 104.987 131.154 104.923 131.154 104.88C131.154 104.795 131.197 104.731 131.282 104.688C131.41 104.645 131.496 104.581 131.538 104.496C131.581 104.453 131.688 104.304 131.858 104.048C132.072 103.792 132.157 103.643 132.114 103.6C132.114 103.472 132.157 103.365 132.242 103.28C132.242 103.195 132.242 103.131 132.242 103.088C132.242 103.003 132.285 102.939 132.37 102.896C132.541 102.853 132.626 102.789 132.626 102.704V101.936C132.626 101.765 132.605 101.595 132.562 101.424C132.562 101.253 132.52 101.104 132.434 100.976C132.093 100.549 131.538 100.336 130.77 100.336C130.216 100.336 129.682 100.464 129.17 100.72C128.616 100.976 128.146 101.403 127.762 102C127.464 102.427 127.314 102.875 127.314 103.344C127.314 103.685 127.378 104.027 127.506 104.368C127.677 104.709 127.826 105.029 127.954 105.328C128.082 105.627 128.253 105.989 128.466 106.416C128.722 106.843 128.914 107.184 129.042 107.44C129.256 107.781 129.49 108.187 129.746 108.656C130.002 109.083 130.194 109.488 130.322 109.872C130.365 109.915 130.322 109.957 130.194 110C130.109 110 130.088 110.043 130.13 110.128C130.173 110.213 130.237 110.256 130.322 110.256C130.408 110.256 130.472 110.299 130.514 110.384C130.6 110.512 130.6 110.619 130.514 110.704C130.472 110.789 130.472 110.917 130.514 111.088C130.514 111.131 130.557 111.173 130.642 111.216C130.728 111.259 130.77 111.301 130.77 111.344C130.984 111.899 131.09 112.347 131.09 112.688C131.474 112.475 131.901 112.219 132.37 111.92C132.84 111.621 133.096 111.344 133.138 111.088C133.181 111.003 133.245 110.981 133.33 111.024C133.458 111.024 133.522 111.067 133.522 111.152C133.48 111.451 133.117 111.856 132.434 112.368C131.794 112.88 131.304 113.243 130.962 113.456C131.005 113.499 130.984 113.605 130.898 113.776C130.813 113.947 130.792 114.075 130.834 114.16C130.834 114.203 130.813 114.267 130.77 114.352C130.728 114.395 130.685 114.459 130.642 114.544C130.642 114.715 130.6 114.843 130.514 114.928V115.056L130.322 115.184C130.28 115.227 130.216 115.333 130.13 115.504C130.088 115.632 130.024 115.739 129.938 115.824H129.746C129.661 115.909 129.618 116.016 129.618 116.144C129.533 116.272 129.341 116.421 129.042 116.592C128.744 116.72 128.552 116.848 128.466 116.976C128.466 116.976 128.445 116.976 128.402 116.976C128.36 116.976 128.296 117.019 128.21 117.104H128.018C127.976 117.104 127.933 117.147 127.89 117.232C127.848 117.275 127.805 117.317 127.762 117.36C127.634 117.36 127.57 117.403 127.57 117.488C127.4 117.488 127.272 117.509 127.186 117.552L126.546 117.68C126.376 117.851 126.226 117.936 126.098 117.936L126.034 117.872C125.949 117.957 125.885 118 125.842 118H125.586C125.544 118 125.501 118.021 125.458 118.064C125.416 118.107 125.373 118.128 125.33 118.128H125.202C125.16 118.128 125.117 118.128 125.074 118.128C125.074 118.171 125.032 118.192 124.946 118.192C124.818 118.192 124.626 118.192 124.37 118.192C124.157 118.192 123.986 118.213 123.858 118.256ZM123.218 117.68C123.218 117.68 123.261 117.68 123.346 117.68C123.474 117.637 123.56 117.616 123.602 117.616C123.816 117.616 124.008 117.637 124.178 117.68C124.349 117.68 124.52 117.68 124.69 117.68C124.776 117.68 124.818 117.637 124.818 117.552H124.946C125.074 117.424 125.138 117.403 125.138 117.488C125.181 117.573 125.245 117.573 125.33 117.488C125.416 117.488 125.458 117.467 125.458 117.424L125.714 117.296C125.757 117.296 125.778 117.296 125.778 117.296C125.778 117.253 125.8 117.232 125.842 117.232H125.97C126.056 117.232 126.141 117.189 126.226 117.104C126.312 117.019 126.354 116.976 126.354 116.976C126.354 116.976 126.418 116.912 126.546 116.784C126.546 116.784 126.568 116.784 126.61 116.784C126.653 116.741 126.696 116.72 126.738 116.72C126.824 116.635 126.909 116.592 126.994 116.592C126.994 116.549 127.037 116.507 127.122 116.464C127.208 116.379 127.25 116.336 127.25 116.336C127.293 116.293 127.336 116.272 127.378 116.272C127.464 116.229 127.506 116.187 127.506 116.144C127.592 116.144 127.762 115.995 128.018 115.696C128.274 115.397 128.445 115.035 128.53 114.608C128.53 114.523 128.402 114.587 128.146 114.8C127.89 114.971 127.762 115.056 127.762 115.056C127.634 115.099 127.506 115.184 127.378 115.312C127.25 115.397 127.144 115.44 127.058 115.44C127.016 115.44 126.952 115.483 126.866 115.568C126.824 115.611 126.781 115.632 126.738 115.632C126.696 115.632 126.674 115.653 126.674 115.696C126.674 115.696 126.632 115.675 126.546 115.632C126.504 115.717 126.376 115.803 126.162 115.888C125.949 115.973 125.8 116.016 125.714 116.016H125.522L125.458 116.08C125.458 116.08 125.437 116.101 125.394 116.144C125.352 116.144 125.309 116.144 125.266 116.144L124.818 116.208H124.754C124.712 116.208 124.669 116.229 124.626 116.272C124.456 116.272 124.264 116.293 124.05 116.336C123.837 116.379 123.709 116.4 123.666 116.4H123.602C123.602 116.357 123.581 116.336 123.538 116.336V116.4H123.218C123.09 116.4 122.941 116.379 122.77 116.336C122.642 116.251 122.536 116.208 122.45 116.208C122.408 116.208 122.386 116.229 122.386 116.272C122.386 116.272 122.365 116.272 122.322 116.272H122.194C122.152 116.272 122.13 116.251 122.13 116.208H121.81C121.81 116.08 121.768 116.059 121.682 116.144H121.618C121.448 116.144 121.298 116.08 121.17 115.952C121.085 115.824 120.936 115.76 120.722 115.76L120.53 115.568C120.53 115.611 120.509 115.653 120.466 115.696C120.466 115.696 120.466 115.717 120.466 115.76C120.466 115.76 120.488 115.803 120.53 115.888C120.616 115.931 120.658 115.973 120.658 116.016L120.786 116.272L121.042 116.592L121.17 116.72C121.213 116.763 121.234 116.784 121.234 116.784C121.277 116.784 121.32 116.827 121.362 116.912C121.448 116.912 121.49 116.976 121.49 117.104C122.216 117.488 122.792 117.68 123.218 117.68Z" fill="#C5C5C5"/>
</svg>
