<svg width="16" height="16" viewBox="0 0 16 16" fill="none" xmlns="http://www.w3.org/2000/svg">
<path d="M7.99219 0.5C8.89225 0.5 9.7419 0.650398 10.5439 0.950195L10.8848 1.08789L10.8877 1.08887C11.6866 1.42964 12.3967 1.88536 13.0205 2.45605L13.2832 2.70801L13.2842 2.70898C13.8892 3.31433 14.3802 4.00223 14.7578 4.77441L14.9121 5.11035L14.9131 5.11133C15.3036 6.00724 15.5 6.96718 15.5 7.99609C15.5 8.90136 15.3494 9.75381 15.0498 10.5566L14.9121 10.8975C14.5669 11.689 14.1087 12.3979 13.5361 13.0264L13.2842 13.291L13.2832 13.292C12.6836 13.8961 11.9994 14.3843 11.2295 14.7578L10.8945 14.9111L10.8916 14.9121C9.99045 15.3032 9.02833 15.5 8 15.5C7.10023 15.5 6.25108 15.3494 5.44922 15.0498L5.1084 14.9121L5.10547 14.9111L4.77051 14.7578C4.10987 14.4376 3.51094 14.033 2.97266 13.543L2.70801 13.291C2.10257 12.6853 1.61197 11.9988 1.23438 11.2305L1.08008 10.8965C0.694567 9.99545 0.5 9.03039 0.5 7.99609C0.500008 6.96666 0.694379 6.00646 1.08008 5.11035C1.47484 4.20003 2.01488 3.40061 2.70117 2.70898C3.30558 2.10436 3.99206 1.61582 4.7627 1.24219L5.09863 1.08887L5.10059 1.08789C6.00166 0.696794 6.96383 0.500018 7.99219 0.5ZM10.8994 4.05078C10.4708 4.05078 10.1354 4.26431 9.89258 4.58008L9.79395 4.7207L9.79297 4.72266L7.07617 9.06543L6.09766 7.83789L6.09668 7.83691L5.99512 7.71973C5.89212 7.61002 5.77426 7.51363 5.63965 7.44336H5.64062C5.63871 7.44231 5.63668 7.44147 5.63477 7.44043C5.63091 7.43844 5.62693 7.43554 5.62305 7.43359L5.62207 7.43457C5.44409 7.34069 5.2519 7.29688 5.05469 7.29688C4.74904 7.29688 4.47242 7.39718 4.24512 7.59082L4.15039 7.67969C3.91003 7.92326 3.78818 8.23051 3.78809 8.57129C3.78809 8.69277 3.80336 8.81261 3.83496 8.92871L3.87207 9.04395L3.87793 9.05859L3.88477 9.07422C3.94286 9.20491 4.01861 9.33056 4.10742 9.45117L4.125 9.47461L5.97363 11.7002C6.11538 11.8785 6.28109 12.0302 6.47461 12.1387L6.48828 12.1465C6.69413 12.2535 6.91774 12.3027 7.14844 12.3027C7.32462 12.3027 7.49584 12.2715 7.65723 12.207L7.81445 12.1309L7.82031 12.1279C8.02064 12.0122 8.18754 11.8555 8.31934 11.665L8.32324 11.6582L8.32812 11.6514L11.9102 6.11133L11.9092 6.11035C11.9814 5.9987 12.0406 5.88068 12.0879 5.75684L12.0889 5.75781C12.09 5.75507 12.0907 5.75177 12.0918 5.74902C12.0934 5.74473 12.0961 5.74063 12.0977 5.73633L12.0967 5.73535C12.1555 5.58851 12.1895 5.43294 12.1895 5.27148C12.1893 4.9096 12.0422 4.59212 11.7598 4.3623H11.7588C11.5127 4.15808 11.2203 4.05081 10.8994 4.05078Z" fill="#3897F0" stroke="black"/>
</svg>
