<svg xmlns="http://www.w3.org/2000/svg" version="1.1" xmlns:xlink="http://www.w3.org/1999/xlink" width="1500" height="1500" viewBox="0 0 1500 1500"><rect width="1500" height="1500" x="0" y="0" id="background" stroke="transparent" fill="#ffffff"></rect><svg xml:space="preserve" width="1000" height="1000" data-version="2" data-id="lg_ySDtoe26NuZkKjYVjD" viewBox="0 0 571 129" x="250" y="250"><rect width="100%" height="100%" fill="transparent"></rect><rect width="525.83" height="155.81" x="-262.92" y="-77.91" fill="#535353" rx="0" ry="0" transform="translate(353.7 64.5)scale(.8056)"></rect><rect width="151.36" height="155.81" x="-75.68" y="-77.91" fill="#535353" rx="0" ry="0" transform="translate(66.46 64.5)scale(.8056)"></rect><g transform="translate(355.55 65.23)"><filter id="a" width="140%" height="140%" x="-20%" y="-20%"><feGaussianBlur in="SourceAlpha"></feGaussianBlur><feOffset result="oBlur"></feOffset><feFlood flood-color="#F75CFF" flood-opacity="1"></feFlood><feComposite in2="oBlur" operator="in"></feComposite><feMerge><feMergeNode></feMergeNode><feMergeNode in="SourceGraphic"></feMergeNode></feMerge></filter><g filter="url(#a)"><path fill="#ffffff" d="M-129.175 27.31v-55.62h7.04v49.32h19.29v6.3Z"></path><rect width="26.33" height="55.62" x="-13.16" y="-27.81" fill="none" rx="0" ry="0" transform="translate(-115.51)"></rect><path fill="#ffffff" d="M-91.355 27.31v-55.62h7.05v55.62Z"></path><rect width="7.05" height="55.62" x="-3.52" y="-27.81" fill="none" rx="0" ry="0" transform="translate(-87.33)"></rect><path fill="#ffffff" d="M-56.005 28.05q-4.94 0-8.93-1.97-3.98-1.98-6.33-4.83l2.04-8.52q1.73 3.46 5.19 6.24 3.46 2.78 8.28 2.78 4.39 0 7.26-2.78 2.88-2.78 2.88-6.86 0-2.97-1.42-4.89-1.43-1.91-3.22-3.02-1.79-1.12-2.84-1.61l-6.8-3.46q-1.61-.87-3.99-2.41-2.38-1.55-4.17-4.27-1.79-2.72-1.79-7.04 0-4.21 1.95-7.48 1.94-3.28 5.44-5.13 3.49-1.86 8-1.86 4.45 0 7.85 1.58 3.4 1.58 5.31 3.25l-2.04 8.52q-1.54-2.59-4.57-4.88-3.03-2.28-6.86-2.28-3.71 0-5.93 2.19-2.23 2.19-2.23 5.41 0 2.47 1.15 4.08 1.14 1.6 2.59 2.53 1.45.93 2.38 1.42l6.92 3.46q1.24.62 3.12 1.73 1.89 1.12 3.74 2.94 1.86 1.82 3.09 4.45 1.24 2.63 1.24 6.33 0 4.76-2.26 8.47-2.25 3.71-6.15 5.81-3.89 2.1-8.9 2.1"></path><rect width="32.57" height="57.11" x="-16.29" y="-28.55" fill="none" rx="0" ry="0" transform="translate(-54.48)"></rect><path fill="#ffffff" d="M-33.875-22.01v-6.3h36.71v6.3h-14.83v49.32h-7.05v-49.32Z"></path><rect width="36.71" height="55.62" x="-18.36" y="-27.81" fill="none" rx="0" ry="0" transform="translate(-15.02)"></rect><path fill="#ffffff" d="M14.335 27.31v-55.62h7.04v55.62Z"></path><rect width="7.04" height="55.62" x="-3.52" y="-27.81" fill="none" rx="0" ry="0" transform="translate(18.36)"></rect><path fill="#ffffff" d="m83.305 29.17-38.93-41.72v39.86h-6.68v-57.48l38.94 41.72v-39.86h6.67Z"></path><rect width="45.61" height="59.34" x="-22.8" y="-29.67" fill="none" rx="0" ry="0" transform="translate(61)"></rect><path fill="#ffffff" d="M110.875 28.05q-4.95 0-8.93-1.97-3.99-1.98-6.34-4.83l2.04-8.52q1.73 3.46 5.19 6.24 3.47 2.78 8.29 2.78 4.38 0 7.26-2.78 2.87-2.78 2.87-6.86 0-2.97-1.42-4.89-1.42-1.91-3.21-3.02-1.8-1.12-2.85-1.61l-6.79-3.46q-1.61-.87-3.99-2.41-2.38-1.55-4.17-4.27-1.8-2.72-1.8-7.04 0-4.21 1.95-7.48 1.95-3.28 5.44-5.13 3.49-1.86 8-1.86 4.45 0 7.85 1.58 3.4 1.58 5.32 3.25l-2.04 8.52q-1.55-2.59-4.57-4.88-3.03-2.28-6.86-2.28-3.71 0-5.94 2.19-2.22 2.19-2.22 5.41 0 2.47 1.14 4.08 1.14 1.6 2.6 2.53 1.45.93 2.38 1.42l6.92 3.46q1.23.62 3.12 1.73 1.88 1.12 3.74 2.94 1.85 1.82 3.09 4.45 1.23 2.63 1.23 6.33 0 4.76-2.25 8.47-2.26 3.71-6.15 5.81-3.89 2.1-8.9 2.1"></path><rect width="32.57" height="57.11" x="-16.29" y="-28.55" fill="none" rx="0" ry="0" transform="translate(112.39)"></rect></g></g><path fill="#1b1b1b" d="M45.265 77.358h3.616v7.064h-3.616zm-6.631 0h3.617v7.064h-3.617zm49.242 0h3.617v7.064h-3.617zm-6.63 0h3.616v7.064h-3.616z"></path><path fill="#1b1b1b" d="m101.543 70.513-6.028-24.661a1.808 1.808 0 0 0-1.756-1.38H52.216v-7.5a1.808 1.808 0 0 0-1.808-1.81h-8.44a1.808 1.808 0 0 0-1.808 1.81v7.501h-3.265a1.808 1.808 0 0 0-1.756 1.38l-6.03 24.66a1.806 1.806 0 0 0 1.757 2.237h1.045v18.7a1.808 1.808 0 0 0 1.808 1.808h63.215a1.808 1.808 0 0 0 1.808-1.809V72.75h1.044a1.807 1.807 0 0 0 1.757-2.237m-45.957-8.178 9.847-11.454 9.634 11.443v27.318h-19.48zm37.35-11.801H69.869l-2.057-2.444H92.34zM43.776 38.78H48.6v5.693h-4.822zm19.287 9.31-2.1 2.444H37.717l.598-2.444zM35.528 72.75H51.97v16.892H35.53zm59.597 16.892H78.684V72.75h16.441z"></path><path fill="#1b1b1b" d="M65.327 68.066a4.712 4.712 0 0 0-4.713 4.712v8.11h9.425v-8.11a4.712 4.712 0 0 0-4.712-4.712"></path></svg></svg>